<?xml version="1.0" encoding="UTF-8" standalone="no"?>
<!DOCTYPE svg PUBLIC "-//W3C//DTD SVG 1.1//EN" "http://www.w3.org/Graphics/SVG/1.1/DTD/svg11.dtd">
<svg width="100%" height="100%" viewBox="0 0 2000 2000" version="1.1" xmlns="http://www.w3.org/2000/svg" xmlns:xlink="http://www.w3.org/1999/xlink" xml:space="preserve" xmlns:serif="http://www.serif.com/" style="fill-rule:evenodd;clip-rule:evenodd;stroke-linecap:round;stroke-linejoin:round;stroke-miterlimit:1.5;">
    <g transform="matrix(4.87841,0,0,4.87841,-248.873,-256.191)">
        <g transform="matrix(0.763672,0,0,0.787109,60.5,56)">
            <path d="M512,101.394C512,45.396 465.211,0 407.494,0L104.506,0C46.789,0 0,45.396 0,101.394L0,410.606C0,466.604 46.789,512 104.506,512L407.494,512C465.211,512 512,466.604 512,410.606L512,101.394Z"/>
        </g>
        <g transform="matrix(3.19724,0,0,3.19724,-10.0891,-341.312)">
            <g transform="matrix(0.206263,0,0,0.206263,25.1422,125.182)">
                <path d="M309,353L309,90L412,90L412,395L336.182,456L243.283,456C205.282,456 168.837,440.904 141.967,414.033C115.096,387.162 100,350.718 100,312.717C100,210.11 100,90 100,90L203,90L203,304.243C203,331.171 224.829,353 251.757,353C279.593,353 309,353 309,353Z" style="fill:none;stroke:white;stroke-width:10.57px;"/>
            </g>
            <g transform="matrix(0.206263,0.0160256,0,0.206263,35.7002,131.39)">
                <path d="M309,353L309,90L412,90L412,395L336.182,456L232.184,456C157.581,456 100,398.246 100,323.417L100,90L203,90L203,307.885C203,333.347 222.594,353 247.98,353C276.863,353 309,353 309,353Z" style="fill:none;stroke:white;stroke-width:10.17px;"/>
            </g>
            <path d="M45.768,143.746L56.326,151.557" style="fill:none;stroke:white;stroke-width:2.18px;"/>
            <path d="M88.877,197.993L99.435,209.153" style="fill:none;stroke:white;stroke-width:2.18px;"/>
            <path d="M88.877,143.746L99.512,155.172" style="fill:none;stroke:white;stroke-width:2.18px;"/>
            <path d="M110.123,143.746L120.681,156.557" style="fill:none;stroke:white;stroke-width:2.18px;"/>
            <path d="M110.123,206.656L120.681,219.467" style="fill:none;stroke:white;stroke-width:2.18px;"/>
            <path d="M94.484,219.238L104.855,230.819" style="fill:none;stroke:white;stroke-width:2.18px;"/>
            <path d="M67.014,143.746L77.572,153.207" style="fill:none;stroke:white;stroke-width:2.18px;"/>
        </g>
    </g>
</svg>
