<?xml version="1.0" encoding="UTF-8" standalone="no"?>
<!DOCTYPE svg PUBLIC "-//W3C//DTD SVG 1.1//EN" "http://www.w3.org/Graphics/SVG/1.1/DTD/svg11.dtd">
<svg width="100%" height="100%" viewBox="0 0 1000 300" version="1.1" xmlns="http://www.w3.org/2000/svg" xmlns:xlink="http://www.w3.org/1999/xlink" xml:space="preserve" xmlns:serif="http://www.serif.com/" style="fill-rule:evenodd;clip-rule:evenodd;stroke-linecap:round;stroke-linejoin:round;stroke-miterlimit:1.5;">
    <g transform="matrix(2.41538,0,0,2.41538,-97.5036,-474.615)">
        <g transform="matrix(1.06048,0,0,1.06048,-27.8346,-98.6634)">
            <g transform="matrix(1,0,0,1,82.0588,123.532)">
                <g transform="matrix(1,0,0,1,-57,-7.54021)">
                    <path d="M374.49,177.754L419.257,177.754L419.257,199.2C419.257,199.2 395.625,199.091 383.176,199.034C381.197,199.024 379.296,199.804 377.893,201.2C376.491,202.596 375.702,204.494 375.702,206.473C375.702,221.349 375.702,253.246 375.702,253.246L354.457,253.246L354.457,197.786C354.457,186.723 363.426,177.754 374.49,177.754Z" style="fill:none;stroke:white;stroke-width:0.39px;"/>
                </g>
                <g transform="matrix(1,0.034385,0,1,-53,-11.8993)">
                    <path d="M375.178,177.754L419.257,177.754L419.257,198.999L383.397,198.999C381.381,198.999 379.423,199.819 377.972,201.27C376.522,202.722 375.702,204.681 375.702,206.698L375.702,253.246L354.457,253.246L354.457,198.487C354.457,193.055 356.663,187.779 360.57,183.87C364.477,179.961 369.749,177.754 375.178,177.754Z" style="fill:none;stroke:white;stroke-width:0.38px;"/>
                </g>
                <g transform="matrix(0.942967,0,0,0.942967,-65.3594,-29.9561)">
                    <path d="M453.48,235.02L457.722,245.472" style="fill:none;stroke:white;stroke-width:0.41px;"/>
                </g>
            </g>
            <path d="M444.316,293.746L448.316,303.803" style="fill:none;stroke:white;stroke-width:0.39px;"/>
            <path d="M400.761,369.238L404.748,374.238" style="fill:none;stroke:white;stroke-width:0.39px;"/>
            <path d="M379.516,369.238L383.516,374.284" style="fill:none;stroke:white;stroke-width:0.39px;"/>
        </g>
        <g transform="matrix(-1.06562,0,0,1.02239,334.997,-132.284)">
            <g transform="matrix(1,0,0,1,-93.325,166.924)">
                <path d="M263.012,170.214L284.256,170.962L284.246,245.706L263.012,245.706L263.012,191.459L251.369,191.459C245.724,191.459 241.148,196.228 241.148,202.112C241.148,217.91 241.148,245.706 241.148,245.706L219.903,245.706L219.903,201.686C219.903,184.304 233.422,170.214 250.099,170.214L263.012,170.214Z" style="fill:none;stroke:white;stroke-width:0.4px;"/>
            </g>
            <g transform="matrix(1.00265,-0.103923,-1.47451e-17,0.997352,-98.7717,202.922)">
                <path d="M263.012,170.214L284.256,170.939L284.246,245.706L263.012,245.706L263.012,191.459L250.333,191.459C245.119,191.459 241.148,195.641 241.148,201.131C241.148,216.728 241.148,245.706 241.148,245.706L219.903,245.706L219.903,198.787C219.903,182.569 231.636,170.214 247.039,170.214C255.666,170.214 263.012,170.214 263.012,170.214Z" style="fill:none;stroke:white;stroke-width:0.42px;"/>
            </g>
            <path d="M126.617,412.674L121.863,424.897" style="fill:none;stroke:white;stroke-width:0.4px;"/>
            <path d="M143.017,422.917L147.823,412.605" style="fill:none;stroke:white;stroke-width:0.4px;"/>
            <path d="M169.609,358.439L164.939,366.461" style="fill:none;stroke:white;stroke-width:0.4px;"/>
            <path d="M190.921,412.63L186.229,418.304" style="fill:none;stroke:white;stroke-width:0.4px;"/>
            <path d="M169.733,412.63L164.939,420.584" style="fill:none;stroke:white;stroke-width:0.4px;"/>
            <g transform="matrix(1,0,0,1,-12,126.999)">
                <path d="M202.931,211L198.229,216.869" style="fill:none;stroke:white;stroke-width:0.4px;"/>
            </g>
        </g>
        <g transform="matrix(1.06739,0,0,1.06739,-1.69983,58.9688)">
            <g transform="matrix(0.206263,0,0,0.206263,25.1422,125.182)">
                <path d="M309,353L309,90L412,90L412,395L336.182,456L246.005,456C165.369,456 100,390.631 100,309.995C100,207.998 100,90 100,90L203,90L203,303.317C203,330.756 225.244,353 252.683,353C280.241,353 309,353 309,353Z" style="fill:none;stroke:white;stroke-width:1.88px;"/>
            </g>
            <g transform="matrix(0.206263,0.0160256,0,0.206263,29.1422,128.58)">
                <path d="M309,353L309,90L412,90L412,395L336.182,456L234.696,456C158.675,456 100,397.149 100,320.899C100,216.611 100,90 100,90L203,90L203,307.028C203,332.974 222.966,353 248.834,353C277.493,353 309,353 309,353Z" style="fill:none;stroke:white;stroke-width:1.81px;"/>
            </g>
            <path d="M45.768,143.746L49.953,148.901" style="fill:none;stroke:white;stroke-width:0.39px;"/>
            <path d="M88.877,197.993L92.877,206.343" style="fill:none;stroke:white;stroke-width:0.39px;"/>
            <path d="M88.877,143.746L92.954,152.361" style="fill:none;stroke:white;stroke-width:0.39px;"/>
            <path d="M110.123,143.746L114.112,153.77" style="fill:none;stroke:white;stroke-width:0.39px;"/>
            <path d="M110.123,206.656L114.088,216.548" style="fill:none;stroke:white;stroke-width:0.39px;"/>
            <path d="M94.484,219.238L98.297,228.009" style="fill:none;stroke:white;stroke-width:0.39px;"/>
            <path d="M67.014,143.746L71.001,150.348" style="fill:none;stroke:white;stroke-width:0.39px;"/>
        </g>
        <g transform="matrix(1.04824,0,0,1.04824,-13.9892,-17.4122)">
            <g transform="matrix(-1,0,0,1,660.374,0.984567)">
                <path d="M378.877,293.746L378.877,218.254L417.485,218.254C431.695,218.254 443.232,229.79 443.232,244C443.232,258.21 431.695,269.746 417.485,269.746L393.376,269.746L393.376,279.247L441.975,279.247L441.975,293.746L378.877,293.746ZM417.834,232.753L393.376,232.753L393.376,255.247L417.834,255.247C422.567,255.247 428.456,250.466 428.456,243.686C428.456,236.907 422.567,232.753 417.834,232.753Z" style="fill:none;stroke:white;stroke-width:0.39px;"/>
            </g>
            <g transform="matrix(-1.00133,-0.0454699,-7.16441e-16,0.998676,664.961,30.6109)">
                <path d="M378.877,293.746L378.877,218.254L417.485,218.254C431.695,218.254 443.232,229.79 443.232,244C443.232,258.21 431.695,269.746 417.485,269.746L393.376,269.746L393.376,279.247L441.975,279.247L441.975,293.746L378.877,293.746ZM417.834,232.753L393.376,232.753L393.376,255.247L417.834,255.247C422.567,255.247 428.456,250.466 428.456,243.686C428.456,236.907 422.567,232.753 417.834,232.753Z" style="fill:none;stroke:white;stroke-width:0.4px;"/>
            </g>
            <path d="M281.496,219.238L285.546,231.205" style="fill:none;stroke:white;stroke-width:0.39px;"/>
            <path d="M266.997,256.232L270.902,267.491" style="fill:none;stroke:white;stroke-width:0.39px;"/>
            <path d="M266.997,270.731L270.992,282.09" style="fill:none;stroke:white;stroke-width:0.39px;"/>
            <path d="M266.997,280.147L270.926,291.384" style="fill:none;stroke:white;stroke-width:0.39px;"/>
            <path d="M218.399,294.731L222.349,303.773" style="fill:none;stroke:white;stroke-width:0.39px;"/>
            <path d="M218.399,280.232L222.483,289.419" style="fill:none;stroke:white;stroke-width:0.39px;"/>
            <path d="M281.496,294.731L285.41,306.533" style="fill:none;stroke:white;stroke-width:0.39px;"/>
            <path d="M266.997,233.737L271.064,245.079" style="fill:none;stroke:white;stroke-width:0.39px;"/>
        </g>
        <g transform="matrix(1.0418,0,0,1.0418,-19.2191,-93.6231)">
            <g transform="matrix(1,0,0,1,14.4264,34.9923)">
                <g transform="matrix(2.35913,0,0,2.35913,-334.55,-111.63)">
                    <path d="M279,157L290.279,157L290.279,189L279,189C270.169,189 263,181.831 263,173C263,164.169 270.169,157 279,157Z" style="fill:none;stroke:white;stroke-width:0.17px;"/>
                </g>
                <g transform="matrix(0.785793,0,0,0.785793,101.125,160.098)">
                    <path d="M282.818,152.601L290.279,152.601L290.279,194.569L282.818,194.569C273.987,194.569 263,185.648 263,173C263,160.352 273.987,152.601 282.818,152.601Z" style="fill:none;stroke:white;stroke-width:0.51px;"/>
                </g>
            </g>
            <g transform="matrix(1.0024,0.17675,-3.46945e-17,0.997607,17.7405,-9.92176)">
                <g transform="matrix(2.35913,-0.257226,0,2.35913,-334.55,-39.9701)">
                    <path d="M279,157L290.279,157L290.279,189L279,189C270.169,189 263,181.831 263,173C263,164.169 270.169,157 279,157Z" style="fill:none;stroke:white;stroke-width:0.16px;"/>
                </g>
                <g transform="matrix(0.785793,0,0,0.785793,101.125,160.098)">
                    <path d="M282.818,152.601L290.279,152.601L290.279,194.569L282.818,194.569C273.987,194.569 263,185.648 263,173C263,160.352 273.987,152.601 282.818,152.601Z" style="fill:none;stroke:white;stroke-width:0.46px;"/>
                </g>
            </g>
            <path d="M364.683,369.238L368.838,382.432" style="fill:none;stroke:white;stroke-width:0.4px;"/>
            <path d="M364.683,293.746L368.838,307.121" style="fill:none;stroke:white;stroke-width:0.4px;"/>
            <path d="M343.65,315.003L347.754,327.609" style="fill:none;stroke:white;stroke-width:0.4px;"/>
            <path d="M343.65,347.982L347.754,360.43" style="fill:none;stroke:white;stroke-width:0.4px;"/>
        </g>
    </g>
</svg>
