<?xml version="1.0" encoding="UTF-8" standalone="no"?>
<!DOCTYPE svg PUBLIC "-//W3C//DTD SVG 1.1//EN" "http://www.w3.org/Graphics/SVG/1.1/DTD/svg11.dtd">
<svg width="100%" height="100%" viewBox="0 0 46 46" version="1.1" xmlns="http://www.w3.org/2000/svg" xmlns:xlink="http://www.w3.org/1999/xlink" xml:space="preserve" xmlns:serif="http://www.serif.com/" style="fill-rule:evenodd;clip-rule:evenodd;stroke-linejoin:round;stroke-miterlimit:2;">
    <g>
        <g>
            <path d="M22.58,11.269C16.343,11.269 11.269,16.344 11.269,22.581C11.269,28.818 16.343,33.893 22.58,33.893C28.816,33.893 33.891,28.819 33.891,22.581C33.891,16.343 28.816,11.269 22.58,11.269Z" style="fill:white;fill-rule:nonzero;"/>
            <g>
                <g>
                    <path d="M22.58,7.944C21.361,7.944 20.373,6.956 20.373,5.738L20.373,2.207C20.373,0.988 21.361,0 22.58,0C23.799,0 24.787,0.988 24.787,2.207L24.787,5.738C24.787,6.956 23.798,7.944 22.58,7.944Z" style="fill:white;fill-rule:nonzero;"/>
                </g>
                <g>
                    <path d="M22.58,37.215C21.361,37.215 20.373,38.203 20.373,39.422L20.373,42.952C20.373,44.172 21.361,45.16 22.58,45.16C23.799,45.16 24.787,44.172 24.787,42.952L24.787,39.422C24.787,38.203 23.798,37.215 22.58,37.215Z" style="fill:white;fill-rule:nonzero;"/>
                </g>
                <g>
                    <path d="M32.928,12.231C32.067,11.369 32.067,9.972 32.928,9.11L35.425,6.613C36.286,5.752 37.684,5.752 38.546,6.613C39.408,7.475 39.408,8.873 38.546,9.734L36.049,12.231C35.188,13.093 33.791,13.093 32.928,12.231Z" style="fill:white;fill-rule:nonzero;"/>
                </g>
                <g>
                    <path d="M12.231,32.93C11.369,32.067 9.972,32.067 9.11,32.93L6.613,35.426C5.752,36.287 5.751,37.686 6.613,38.547C7.475,39.408 8.873,39.408 9.734,38.547L12.231,36.049C13.093,35.188 13.093,33.79 12.231,32.93Z" style="fill:white;fill-rule:nonzero;"/>
                </g>
                <g>
                    <path d="M37.215,22.58C37.215,21.361 38.203,20.373 39.422,20.373L42.953,20.373C44.172,20.373 45.16,21.361 45.16,22.58C45.16,23.799 44.172,24.786 42.953,24.786L39.422,24.786C38.203,24.786 37.215,23.799 37.215,22.58Z" style="fill:white;fill-rule:nonzero;"/>
                </g>
                <g>
                    <path d="M7.944,22.58C7.944,21.361 6.956,20.373 5.737,20.373L2.207,20.373C0.988,20.373 0,21.361 0,22.58C0,23.799 0.988,24.786 2.207,24.786L5.738,24.786C6.956,24.786 7.944,23.799 7.944,22.58Z" style="fill:white;fill-rule:nonzero;"/>
                </g>
                <g>
                    <path d="M32.928,32.93C33.79,32.069 35.188,32.069 36.049,32.93L38.546,35.427C39.408,36.287 39.408,37.686 38.546,38.547C37.684,39.408 36.287,39.408 35.425,38.547L32.928,36.05C32.066,35.188 32.066,33.791 32.928,32.93Z" style="fill:white;fill-rule:nonzero;"/>
                </g>
                <g>
                    <path d="M12.231,12.231C13.093,11.369 13.093,9.972 12.231,9.11L9.734,6.614C8.872,5.752 7.475,5.752 6.613,6.614C5.751,7.475 5.751,8.873 6.613,9.734L9.11,12.231C9.972,13.094 11.369,13.094 12.231,12.231Z" style="fill:white;fill-rule:nonzero;"/>
                </g>
            </g>
        </g>
    </g>
</svg>
