<?xml version="1.0" encoding="UTF-8" standalone="no"?>
<!DOCTYPE svg PUBLIC "-//W3C//DTD SVG 1.1//EN" "http://www.w3.org/Graphics/SVG/1.1/DTD/svg11.dtd">
<svg width="100%" height="100%" viewBox="0 0 300 700" version="1.1" xmlns="http://www.w3.org/2000/svg" xmlns:xlink="http://www.w3.org/1999/xlink" xml:space="preserve" xmlns:serif="http://www.serif.com/" style="fill-rule:evenodd;clip-rule:evenodd;stroke-linejoin:round;stroke-miterlimit:2;">
    <path d="M243.732,323.268C243.732,323.268 79.617,159.153 60.759,140.295C60.293,139.828 60.031,139.195 60.031,138.536C60.031,137.876 60.293,137.243 60.759,136.776C60.76,136.776 60.76,136.775 60.761,136.775C61.231,136.304 61.87,136.04 62.536,136.04C63.201,136.04 63.84,136.304 64.31,136.775C83.442,155.907 250.809,323.277 250.809,323.277C250.809,323.277 83.392,490.68 64.302,509.769C63.326,510.745 61.745,510.745 60.769,509.769C60.768,509.768 60.767,509.767 60.766,509.766C59.791,508.791 59.791,507.209 60.766,506.234C79.654,487.346 243.732,323.268 243.732,323.268Z" style="fill:rgb(235,235,235);fill-opacity:0.16;"/>
</svg>
