<?xml version="1.0" encoding="UTF-8" standalone="no"?>
<!DOCTYPE svg PUBLIC "-//W3C//DTD SVG 1.1//EN" "http://www.w3.org/Graphics/SVG/1.1/DTD/svg11.dtd">
<svg width="100%" height="100%" viewBox="0 0 1000 300" version="1.1" xmlns="http://www.w3.org/2000/svg" xmlns:xlink="http://www.w3.org/1999/xlink" xml:space="preserve" xmlns:serif="http://www.serif.com/" style="fill-rule:evenodd;clip-rule:evenodd;stroke-linecap:round;stroke-linejoin:round;stroke-miterlimit:1.5;">
    <g transform="matrix(1.74457,0,0,1.74457,107.596,-309.254)">
        <g transform="matrix(1.10182,0,0,1.10182,-20.7395,-112.286)">
            <g transform="matrix(1,0,0,1,82.0588,123.532)">
                <g transform="matrix(1,0,0,1,-57,-7.54021)">
                    <path d="M373.738,177.754L419.257,177.754L419.257,199.2C419.257,199.2 395.267,199.089 382.896,199.032C380.991,199.023 379.161,199.774 377.811,201.118C376.461,202.461 375.702,204.288 375.702,206.192L375.702,253.246L354.457,253.246L354.457,197.035C354.457,191.921 356.489,187.017 360.104,183.401C363.72,179.785 368.624,177.754 373.738,177.754Z" style="fill:none;stroke:white;stroke-width:2.86px;"/>
                </g>
                <g transform="matrix(1,0.034385,0,1,-49.2281,-10.0134)">
                    <path d="M374.401,177.754L419.257,177.754L419.257,198.999L383.109,198.999C381.168,198.999 379.284,199.788 377.887,201.185C376.491,202.582 375.702,204.468 375.702,206.41C375.702,221.258 375.702,253.246 375.702,253.246L354.457,253.246L354.457,197.709C354.457,192.481 356.581,187.403 360.341,183.641C364.101,179.879 369.175,177.754 374.401,177.754Z" style="fill:none;stroke:white;stroke-width:2.81px;"/>
                </g>
                <g transform="matrix(0.942967,0,0,0.942967,-65.3594,-29.9561)">
                    <path d="M453.48,235.02L461.722,247.472" style="fill:none;stroke:white;stroke-width:3.03px;"/>
                </g>
            </g>
            <path d="M444.316,293.746L452.087,305.689" style="fill:none;stroke:white;stroke-width:2.86px;"/>
            <path d="M400.761,369.238L408.533,379.684" style="fill:none;stroke:white;stroke-width:2.86px;"/>
            <path d="M379.516,369.238L387.288,378.999" style="fill:none;stroke:white;stroke-width:2.86px;"/>
        </g>
        <g transform="matrix(1.05637,0,0,1.05637,-8.19658,-98.9331)">
            <g transform="matrix(1,0,0,1,14.4264,34.9923)">
                <g transform="matrix(2.35913,0,0,2.35913,-334.55,-111.63)">
                    <path d="M279,157L290.279,157L290.279,189L279,189C270.169,189 263,181.831 263,173C263,164.169 270.169,157 279,157Z" style="fill:none;stroke:white;stroke-width:1.27px;"/>
                </g>
                <g transform="matrix(0.785793,0,0,0.785793,101.125,160.098)">
                    <path d="M282.818,152.601L290.279,152.601L290.279,194.569L282.818,194.569C273.987,194.569 263,185.648 263,173C263,160.352 273.987,152.601 282.818,152.601Z" style="fill:none;stroke:white;stroke-width:3.8px;"/>
                </g>
            </g>
            <g transform="matrix(1.0024,0.17675,-3.46945e-17,0.997607,23.4998,-7.04214)">
                <g transform="matrix(2.35913,-0.257226,0,2.35913,-334.55,-39.9701)">
                    <path d="M279,157L290.279,157L290.279,189L279,189C270.169,189 263,181.831 263,173C263,164.169 270.169,157 279,157Z" style="fill:none;stroke:white;stroke-width:1.22px;"/>
                </g>
                <g transform="matrix(0.785793,0,0,0.785793,101.125,160.098)">
                    <path d="M282.818,152.601L290.279,152.601L290.279,194.569L282.818,194.569C273.987,194.569 263,185.648 263,173C263,160.352 273.987,152.601 282.818,152.601Z" style="fill:none;stroke:white;stroke-width:3.48px;"/>
                </g>
            </g>
            <path d="M364.683,369.238L374.597,385.312" style="fill:none;stroke:white;stroke-width:2.98px;"/>
            <path d="M364.683,293.746L374.597,310" style="fill:none;stroke:white;stroke-width:2.98px;"/>
            <path d="M343.65,315.003L353.513,330.489" style="fill:none;stroke:white;stroke-width:2.98px;"/>
            <path d="M343.65,347.982L353.336,363.357" style="fill:none;stroke:white;stroke-width:2.98px;"/>
        </g>
        <g transform="matrix(1.08579,0,0,1.08579,-15.0682,-26.3349)">
            <g transform="matrix(-1,0,0,1,660.374,0.984567)">
                <path d="M378.877,293.746L378.877,218.254L417.485,218.254C431.695,218.254 443.232,229.79 443.232,244C443.232,258.21 431.695,269.746 417.485,269.746L393.376,269.746L393.376,279.247L441.975,279.247L441.975,293.746L378.877,293.746ZM417.834,232.753L393.376,232.753L393.376,255.247L417.834,255.247C422.567,255.247 428.456,250.466 428.456,243.686C428.456,236.907 422.567,232.753 417.834,232.753Z" style="fill:none;stroke:white;stroke-width:2.9px;"/>
            </g>
            <g transform="matrix(-1.00133,-0.0454699,-7.16441e-16,0.998676,668.777,31.5649)">
                <path d="M378.877,293.746L378.877,218.254L417.485,218.254C431.695,218.254 443.232,229.79 443.232,244C443.232,258.21 431.695,269.746 417.485,269.746L393.376,269.746L393.376,279.247L441.975,279.247L441.975,293.746L378.877,293.746ZM417.834,232.753L393.376,232.753L393.376,255.247L417.834,255.247C422.567,255.247 428.456,250.466 428.456,243.686C428.456,236.907 422.567,232.753 417.834,232.753Z" style="fill:none;stroke:white;stroke-width:2.97px;"/>
            </g>
            <path d="M281.496,219.238L289.397,232.302" style="fill:none;stroke:white;stroke-width:2.9px;"/>
            <path d="M266.997,256.232L274.879,268.587" style="fill:none;stroke:white;stroke-width:2.9px;"/>
            <path d="M266.997,270.731L274.879,283.044" style="fill:none;stroke:white;stroke-width:2.9px;"/>
            <path d="M266.997,280.147L274.645,292.545" style="fill:none;stroke:white;stroke-width:2.9px;"/>
            <path d="M218.399,294.731L226.217,304.826" style="fill:none;stroke:white;stroke-width:2.9px;"/>
            <path d="M218.399,280.232L226.217,290.346" style="fill:none;stroke:white;stroke-width:2.9px;"/>
            <path d="M281.496,294.731L289.397,307.695" style="fill:none;stroke:white;stroke-width:2.9px;"/>
            <path d="M266.997,233.737L274.879,246.123" style="fill:none;stroke:white;stroke-width:2.9px;"/>
        </g>
        <g transform="matrix(-1.11298,0,0,1.06784,341.041,-148.297)">
            <g transform="matrix(1,0,0,1,-93.325,166.924)">
                <path d="M263.012,170.214L284.256,170.962L284.246,245.706L263.012,245.706L263.012,191.459L250.934,191.459C245.529,191.459 241.148,196.025 241.148,201.658C241.148,217.372 241.148,245.706 241.148,245.706L219.903,245.706L219.903,200.347C219.903,183.705 232.847,170.214 248.814,170.214L263.012,170.214Z" style="fill:none;stroke:white;stroke-width:2.89px;"/>
            </g>
            <g transform="matrix(1.00265,-0.103923,-1.47451e-17,0.997352,-103.464,204.878)">
                <path d="M263.012,170.214L284.256,170.939L284.246,245.706L263.012,245.706L263.012,191.459L249.942,191.459C244.95,191.459 241.148,195.463 241.148,200.719L241.148,245.706L219.903,245.706L219.903,197.571C219.903,182.043 231.137,170.214 245.884,170.214L263.012,170.214Z" style="fill:none;stroke:white;stroke-width:3.04px;"/>
            </g>
            <path d="M126.617,412.674L117.146,427.067" style="fill:none;stroke:white;stroke-width:2.89px;"/>
            <path d="M138.324,424.872L147.823,412.605" style="fill:none;stroke:white;stroke-width:2.89px;"/>
            <path d="M169.609,358.439L160.246,368.417" style="fill:none;stroke:white;stroke-width:2.89px;"/>
            <path d="M190.921,412.63L181.537,420.393" style="fill:none;stroke:white;stroke-width:2.89px;"/>
            <path d="M169.733,412.63L160.246,422.565" style="fill:none;stroke:white;stroke-width:2.89px;"/>
            <g transform="matrix(1,0,0,1,-12,126.999)">
                <path d="M202.931,211L193.547,218.825" style="fill:none;stroke:white;stroke-width:2.89px;"/>
            </g>
        </g>
        <g transform="matrix(1.08767,0,0,1.08767,-12.628,55.3624)">
            <g transform="matrix(0.206263,0,0,0.206263,25.1422,125.182)">
                <path d="M309,353L309,90L412,90L412,395L336.182,456L243.283,456C205.282,456 168.837,440.904 141.967,414.033C115.096,387.162 100,350.718 100,312.717C100,210.11 100,90 100,90L203,90L203,304.243C203,331.171 224.829,353 251.757,353C279.593,353 309,353 309,353Z" style="fill:none;stroke:white;stroke-width:14.05px;"/>
            </g>
            <g transform="matrix(0.206263,0.0160256,0,0.206263,35.7002,131.39)">
                <path d="M309,353L309,90L412,90L412,395L336.182,456C336.182,456 286.176,456 232.184,456C157.581,456 100,398.246 100,323.417L100,90L203,90L203,307.885C203,333.347 222.594,353 247.98,353C276.863,353 309,353 309,353Z" style="fill:none;stroke:white;stroke-width:13.52px;"/>
            </g>
            <path d="M45.768,143.746L56.326,151.557" style="fill:none;stroke:white;stroke-width:2.9px;"/>
            <path d="M88.877,197.993L99.435,209.153" style="fill:none;stroke:white;stroke-width:2.9px;"/>
            <path d="M88.877,143.746L99.512,155.172" style="fill:none;stroke:white;stroke-width:2.9px;"/>
            <path d="M110.123,143.746L120.681,156.557" style="fill:none;stroke:white;stroke-width:2.9px;"/>
            <path d="M110.123,206.656L120.681,219.467" style="fill:none;stroke:white;stroke-width:2.9px;"/>
            <path d="M94.484,219.238L104.855,230.819" style="fill:none;stroke:white;stroke-width:2.9px;"/>
            <path d="M67.014,143.746L77.572,153.207" style="fill:none;stroke:white;stroke-width:2.9px;"/>
        </g>
    </g>
    <g transform="matrix(1.35982,0,0,1.35982,-22.1456,-237.789)">
        <g transform="matrix(52.1349,0,0,52.1349,73.3537,333.259)">
            <path d="M0.355,-0.432C0.368,-0.419 0.375,-0.402 0.375,-0.383L0.375,-0.095C0.375,-0.076 0.368,-0.059 0.355,-0.046L0.322,-0.013C0.309,0 0.292,0.007 0.273,0.007L0.09,0.007C0.063,0.007 0.05,-0.006 0.05,-0.033L0.05,-0.671C0.05,-0.698 0.063,-0.711 0.09,-0.711L0.101,-0.711C0.128,-0.711 0.141,-0.698 0.141,-0.671L0.141,-0.525C0.141,-0.498 0.154,-0.485 0.181,-0.485L0.273,-0.485C0.292,-0.485 0.309,-0.478 0.322,-0.465L0.355,-0.432ZM0.181,-0.394C0.154,-0.394 0.141,-0.381 0.141,-0.354L0.141,-0.124C0.141,-0.097 0.154,-0.084 0.181,-0.084L0.244,-0.084C0.271,-0.084 0.284,-0.097 0.284,-0.124L0.284,-0.354C0.284,-0.381 0.271,-0.394 0.244,-0.394L0.181,-0.394Z" style="fill:white;fill-rule:nonzero;"/>
        </g>
        <g transform="matrix(52.1349,0,0,52.1349,95.511,333.259)">
            <path d="M0.235,-0.242C0.262,-0.242 0.275,-0.255 0.275,-0.282L0.275,-0.445C0.275,-0.472 0.288,-0.485 0.315,-0.485L0.326,-0.485C0.353,-0.485 0.366,-0.472 0.366,-0.445L0.366,-0.003C0.366,0.016 0.359,0.033 0.346,0.046L0.313,0.079C0.3,0.092 0.283,0.099 0.264,0.099L0.089,0.099C0.062,0.099 0.049,0.086 0.049,0.059L0.049,0.048C0.049,0.021 0.062,0.008 0.089,0.008L0.235,0.008C0.262,0.008 0.275,-0.005 0.275,-0.032L0.275,-0.111C0.275,-0.138 0.262,-0.151 0.235,-0.151L0.142,-0.151C0.123,-0.151 0.106,-0.158 0.093,-0.171L0.06,-0.204C0.047,-0.217 0.04,-0.234 0.04,-0.253L0.04,-0.445C0.04,-0.472 0.053,-0.485 0.08,-0.485L0.091,-0.485C0.118,-0.485 0.131,-0.472 0.131,-0.445L0.131,-0.282C0.131,-0.255 0.144,-0.242 0.171,-0.242L0.235,-0.242Z" style="fill:white;fill-rule:nonzero;"/>
        </g>
    </g>
</svg>
